# File produced by Open Asset Import Library (http://www.assimp.sf.net)
# (assimp v3.1.31193554)

mtllib Chips.mtl

# vertex positions
v -0.046303 -14.109530 9.486287
v 0.024466 -14.109530 9.486287
v 0.892309 -13.170033 10.602998
v -0.796794 -13.170033 9.486287
v 0.067749 -14.109530 -4.743144
v 0.067749 -14.109530 -9.486287
v 1.801805 -12.742152 -8.745304
v 2.451885 -13.170033 -4.743144
v 0.024466 -14.109530 -9.486287
v -0.046303 -14.109530 -9.486287
v -1.111978 -13.170033 -10.049385
v 1.099403 -13.170033 -10.602998
v -0.067749 -14.109530 -4.743144
v -1.308652 -13.170033 -4.743144
v -1.525082 -13.116005 -7.242101
v -0.067749 -14.109530 -9.486287
v -0.046303 14.816288 -4.743144
v 0.024466 14.816288 -4.743144
v 0.024466 14.816288 -9.486287
v -0.046303 14.816288 -9.486287
v 0.024466 -14.109530 -4.743144
v -0.046303 -14.109530 -4.743144
v 4.706838 -4.732981 -4.743144
v 3.705763 -9.877524 -4.743144
v 3.582201 -9.449645 -8.745304
v 3.621001 -4.305100 -8.745304
v 1.663391 -9.890567 -10.805895
v -0.709467 -9.969939 -10.373726
v -1.346790 -4.732981 -10.436699
v 1.454683 -4.909682 -11.329219
v -3.592787 -9.877524 -4.743144
v -4.735900 -4.732981 -4.743144
v -4.501080 -4.678952 -7.242101
v -3.322899 -9.823496 -7.242101
v -1.714189 -9.821847 10.332501
v 1.374354 -9.877524 10.602998
v 2.041740 -4.732981 10.640634
v -2.453290 -4.677302 10.190115
v 1.944328 10.700652 -4.743144
v 1.294248 11.128532 -8.745304
v 0.274544 13.444409 -9.486287
v 0.274544 13.444409 -4.743144
v 0.711018 10.687610 -10.805895
v -1.075812 10.561186 -10.233360
v -0.736175 13.444409 -9.486287
v -0.109022 13.444409 -9.842386
v -1.686797 10.700652 -4.743144
v -0.926224 13.444409 -4.743144
v -0.926224 13.444409 -9.486287
v -1.153962 10.836775 -8.714111
v -0.798000 10.756330 10.332501
v 0.629075 10.700652 10.602998
v 0.042215 13.444409 9.707920
v -0.337656 13.444409 9.486287
v 0.067749 14.816288 -9.486287
v 0.067749 14.816288 -4.743144
v -0.067749 14.816288 -4.743144
v -0.067749 14.816288 -9.486287
v 0.024466 14.816288 9.486287
v -0.046303 14.816288 9.486287
v 2.451885 -13.170033 0.000000
v 1.925366 -13.170033 4.743144
v 0.067749 -14.109530 4.743144
v 0.067749 -14.109530 0.000000
v 3.705763 -9.877524 0.000000
v 3.705763 -9.877524 4.743144
v 4.706838 -4.732981 0.000000
v 5.233356 -4.732981 4.743144
v 0.274544 13.444409 0.000000
v 0.274544 13.444409 4.743144
v 1.944328 10.700652 4.743144
v 1.944328 10.700652 0.000000
v 0.067749 14.816288 0.000000
v 0.067749 14.816288 4.743144
v 0.024466 14.816288 0.000000
v -0.046303 14.816288 0.000000
v -0.046303 14.816288 4.743144
v 0.024466 14.816288 4.743144
v -0.926224 13.444409 0.000000
v -0.452771 13.444409 4.743144
v -0.067749 14.816288 4.743144
v -0.067749 14.816288 0.000000
v -1.686797 10.700652 0.000000
v -2.173115 10.700652 4.743144
v -4.758104 -4.732981 4.743144
v -5.360538 -4.732981 0.000000
v -3.592787 -9.877524 0.000000
v -3.592787 -9.877524 4.743144
v -1.308652 -13.170033 0.000000
v -1.308652 -13.170033 4.743144
v -0.067749 -14.109530 0.000000
v -0.067749 -14.109530 4.743144
v -0.046303 -14.109530 0.000000
v 0.024466 -14.109530 0.000000
v 0.024466 -14.109530 4.743144
v -0.046303 -14.109530 4.743144
v 4.686987 0.411564 4.743144
v 4.686987 0.411564 0.000000
v 4.143753 5.556108 0.000000
v 4.143753 5.556108 4.743144
v 4.160469 0.411564 -4.743144
v 3.074631 0.839444 -8.745304
v 3.493672 5.983988 -8.745304
v 4.143753 5.556108 -4.743144
v 0.790503 0.031772 -10.243237
v -1.538761 0.836822 -9.891973
v -2.158255 5.797391 -9.610215
v 1.240205 5.496260 -10.831808
v -4.796748 0.411564 -4.743144
v -4.323295 5.556108 -4.743144
v -3.579953 5.610137 -7.242101
v -4.539724 0.465592 -7.242101
v -3.836977 0.411564 4.743144
v -4.323295 5.556108 4.743144
v -4.323295 5.556108 0.000000
v -4.796748 0.411564 0.000000
v -1.764428 0.467242 9.446299
v 0.638284 0.411564 9.716796
v 1.439086 5.556108 11.219143
v -2.259754 5.611786 10.948646
v 1.313767 -12.821967 8.860301
v 0.067749 -14.109530 9.486287
v 3.094163 -9.529459 8.860301
v 4.621758 -4.384914 8.860301
v 4.075388 0.759630 8.860301
v 3.532153 5.904174 8.860301
v 1.332729 11.048718 8.860301
v 0.274544 13.444409 9.486287
v 0.067749 14.816288 9.486287
v -0.452771 13.444409 9.486287
v -0.067749 14.816288 9.486287
v -1.983199 11.309498 8.882998
v -4.133379 6.164953 8.136459
v -3.647062 1.020409 8.136459
v -4.568188 -4.124135 8.136459
v -3.402872 -9.268680 8.136459
v -1.118737 -12.561187 8.136459
v -0.067749 -14.109530 9.486287

# UV coordinates
vt 0.908477 0.507222
vt 0.909747 0.507222
vt 0.925327 0.522993
vt 0.895004 0.522993
vt 0.195977 0.253919
vt 0.195977 0.174300
vt 0.227106 0.186738
vt 0.238776 0.253919
vt 0.070001 0.007222
vt 0.071272 0.007222
vt 0.090403 0.022992
vt 0.050705 0.022992
vt 0.193545 0.253919
vt 0.171268 0.253919
vt 0.167383 0.211971
vt 0.193545 0.174300
vt 0.254608 0.413159
vt 0.255878 0.413159
vt 0.255878 0.492778
vt 0.254608 0.492778
vt 0.193930 0.174300
vt 0.195200 0.174300
vt 0.195200 0.253919
vt 0.193930 0.253919
vt 0.294274 0.664619
vt 0.294274 0.578261
vt 0.366119 0.585444
vt 0.366119 0.671802
vt 0.040580 0.078043
vt 0.083177 0.076710
vt 0.094618 0.164619
vt 0.044327 0.161653
vt 0.530160 0.578261
vt 0.530160 0.664619
vt 0.485300 0.665526
vt 0.485300 0.579168
vt 0.878536 0.579196
vt 0.933980 0.578261
vt 0.945961 0.664619
vt 0.865268 0.665554
vt 0.294274 0.522993
vt 0.366119 0.530175
vt 0.530160 0.522993
vt 0.485300 0.523899
vt 0.294274 0.923692
vt 0.366119 0.930875
vt 0.379421 0.969749
vt 0.294274 0.969749
vt 0.057677 0.423473
vt 0.089753 0.421351
vt 0.083656 0.469749
vt 0.072398 0.469749
vt 0.530160 0.923692
vt 0.530160 0.969749
vt 0.445013 0.969749
vt 0.458875 0.925977
vt 0.894983 0.924627
vt 0.920601 0.923692
vt 0.910066 0.969749
vt 0.903247 0.969749
vt 0.379421 0.992778
vt 0.294274 0.992778
vt 0.071272 0.492778
vt 0.070001 0.492778
vt 0.530160 0.992778
vt 0.445013 0.992778
vt 0.909747 0.992778
vt 0.908477 0.992778
vt 0.238776 0.333539
vt 0.229324 0.413159
vt 0.195977 0.413159
vt 0.195977 0.333539
vt 0.209126 0.578261
vt 0.123979 0.578261
vt 0.123979 0.522993
vt 0.209126 0.522993
vt 0.209126 0.664619
vt 0.123979 0.664619
vt 0.209126 0.969749
vt 0.123979 0.969749
vt 0.123979 0.923692
vt 0.209126 0.923692
vt 0.209126 0.992778
vt 0.123979 0.992778
vt 0.255878 0.333539
vt 0.254608 0.333539
vt 0.254608 0.253919
vt 0.255878 0.253919
vt 0.615308 0.969749
vt 0.700456 0.969749
vt 0.700456 0.992778
vt 0.615308 0.992778
vt 0.615308 0.923692
vt 0.700456 0.923692
vt 0.700456 0.664619
vt 0.615308 0.664619
vt 0.615308 0.578261
vt 0.700456 0.578261
vt 0.615308 0.522993
vt 0.700456 0.522993
vt 0.193545 0.333539
vt 0.193545 0.413159
vt 0.171268 0.413159
vt 0.171268 0.333539
vt 0.193930 0.333539
vt 0.195200 0.333539
vt 0.195200 0.413159
vt 0.193930 0.413159
vt 0.123979 0.750977
vt 0.209126 0.750977
vt 0.209126 0.837334
vt 0.123979 0.837334
vt 0.294274 0.750977
vt 0.366119 0.758159
vt 0.366119 0.844517
vt 0.294274 0.837334
vt 0.056250 0.244601
vt 0.098064 0.258115
vt 0.109185 0.341385
vt 0.048177 0.336330
vt 0.530160 0.750977
vt 0.530160 0.837334
vt 0.485300 0.838241
vt 0.485300 0.751884
vt 0.700456 0.750977
vt 0.700456 0.837334
vt 0.615308 0.837334
vt 0.615308 0.750977
vt 0.877634 0.751911
vt 0.920767 0.750977
vt 0.935142 0.837334
vt 0.868742 0.838269
vt 0.050069 0.528835
vt 0.038831 0.507222
vt 0.123979 0.507222
vt 0.050069 0.584104
vt 0.050069 0.670462
vt 0.050069 0.756819
vt 0.050069 0.843177
vt 0.050069 0.929535
vt 0.038831 0.969749
vt 0.038831 0.992778
vt 0.254608 0.174300
vt 0.255878 0.174300
vt 0.785603 0.969749
vt 0.785603 0.992778
vt 0.774773 0.933912
vt 0.761371 0.847555
vt 0.761371 0.761197
vt 0.761371 0.674839
vt 0.761371 0.588482
vt 0.761371 0.533213
vt 0.700456 0.507222
vt 0.785603 0.507222
vt 0.195200 0.492778
vt 0.193930 0.492778
vt 0.403110 0.578043
vt 0.399468 0.522993
vt 0.412505 0.661653
vt 0.393010 0.744601
vt 0.007723 0.344517
vt 0.015246 0.258159
vt 0.047207 0.430875
vt 0.385814 0.969749
vt 0.403110 0.923473
vt 0.069224 0.492778
vt 0.065512 0.469749
vt 0.256655 0.413159
vt 0.256655 0.492778
vt 0.256655 0.333539
vt 0.256655 0.253919
vt 0.256655 0.174300
vt 0.914237 0.969749
vt 0.910524 0.992778
vt 0.933233 0.929535
vt 0.007723 0.837334
vt 0.018784 0.923692
vt 0.034693 0.750977
vt 0.992277 0.670462
vt 0.982468 0.756819
vt 0.964854 0.584104
vt 0.018784 0.522993
vt 0.018784 0.578261
vt 0.195977 0.492778
vt 0.038095 0.030175
vt 0.069224 0.007222
vt 0.174799 0.164847
vt 0.193545 0.492778
vt 0.277881 0.482558
vt 0.272102 0.492778
vt 0.290969 0.466787
vt 0.291354 0.466787
vt 0.800794 0.579196
vt 0.785603 0.522993
vt 0.798238 0.665554
vt 0.843837 0.761197
vt 0.827302 0.674839
vt 0.835107 0.847555
vt 0.800794 0.924627
vt 0.811855 0.838269
vt 0.908092 0.992778
vt 0.901180 0.969749
vt 0.254223 0.253919
vt 0.254223 0.174300
vt 0.254223 0.333539
vt 0.254223 0.413159
vt 0.254223 0.492778
vt 0.087068 0.469749
vt 0.071657 0.492778
vt 0.091156 0.425977
vt 0.442788 0.841385
vt 0.431602 0.921351
vt 0.437730 0.758115
vt 0.151243 0.165526
vt 0.151936 0.251884
vt 0.429082 0.576710
vt 0.427951 0.664619
vt 0.434904 0.522993

# vertex normals
vn -0.541938 -0.103824 0.833981
vn -0.265433 -0.232028 0.935793
vn -0.291562 -0.201977 0.934985
vn -0.604839 -0.234690 0.760980
vn 0.228799 -0.973171 -0.024281
vn 0.271360 -0.961228 -0.049036
vn 0.761798 -0.505588 -0.405025
vn 0.728966 -0.681851 -0.060727
vn -0.092854 -0.712931 -0.695060
vn -0.237491 -0.739393 -0.629997
vn -0.308221 -0.951308 0.003672
vn -0.723461 -0.690362 -0.002303
vn -0.743014 -0.616756 -0.259890
vn -0.338855 -0.921099 -0.191711
vn 0.000000 1.000000 0.000000
vn 0.000000 -1.000000 0.000000
vn 0.992633 -0.033110 -0.116545
vn 0.960861 -0.267280 -0.072849
vn 0.903712 -0.223852 -0.364959
vn 0.875166 0.040397 -0.482133
vn -0.225359 -0.063735 -0.972189
vn -0.569542 -0.111299 -0.814392
vn -0.489314 -0.015755 -0.871966
vn -0.223890 0.025858 -0.974272
vn -0.914328 -0.402163 -0.047645
vn -0.990056 -0.113667 -0.082885
vn -0.901363 -0.090480 -0.423506
vn -0.911628 -0.269947 -0.309941
vn -0.207546 -0.081515 0.974823
vn 0.225219 0.049689 0.973040
vn -0.414870 0.049550 0.908531
vn -0.209689 -0.047825 -0.976598
vn 0.895924 0.442650 -0.037173
vn 0.879214 0.364005 -0.307382
vn 0.850360 0.328560 -0.411018
vn 0.945485 0.325494 -0.010572
vn -0.362403 0.105885 -0.925987
vn -0.624438 0.100791 -0.774544
vn -0.348961 0.075283 -0.934108
vn 0.146111 0.275606 -0.950101
vn -0.940962 0.333109 -0.060236
vn -0.924050 0.381968 -0.015227
vn -0.932265 0.360482 -0.030567
vn -0.919195 0.201373 -0.338422
vn -0.406907 0.246065 0.879704
vn -0.233352 0.183894 0.954845
vn 0.161264 0.194410 0.967574
vn -0.245056 0.181098 0.952445
vn 0.988829 0.149055 0.000000
vn -0.125468 0.069566 -0.989656
vn 0.060644 0.172141 -0.983204
vn -0.847706 0.530466 0.000000
vn 0.057992 0.108084 0.992449
vn -0.131186 0.069615 0.988910
vn 0.388108 -0.921558 0.010182
vn 0.727622 -0.681176 0.081034
vn 0.260285 -0.965236 0.023920
vn 0.197943 -0.980200 0.005193
vn 0.953383 -0.301760 -0.001394
vn 0.931492 -0.354268 0.082561
vn 0.922054 -0.386291 0.024398
vn 0.995874 -0.080714 -0.041480
vn 0.994572 -0.091743 0.049090
vn 0.940003 0.341166 0.000000
vn 0.946409 0.322694 0.013351
vn 0.897156 0.439995 0.038934
vn 0.889130 0.457654 0.000000
vn -0.914977 0.403406 0.008922
vn -0.911461 0.411368 0.003993
vn -0.940915 0.337966 0.021373
vn -0.883225 0.468462 0.021374
vn -0.921544 0.388050 -0.013203
vn -0.896105 0.443288 -0.022167
vn -0.995204 -0.044940 0.086882
vn -0.995604 -0.090463 0.024276
vn -0.904183 -0.427144 -0.000086
vn -0.907081 -0.413878 0.076867
vn -0.721634 -0.692274 -0.000000
vn -0.756017 -0.652292 0.054355
vn -0.318377 -0.947964 -0.000000
vn -0.366553 -0.930214 0.018492
vn 0.994190 0.092405 0.055210
vn 0.996894 0.067063 -0.041283
vn 0.970785 0.239545 -0.013943
vn 0.965928 0.251551 0.060874
vn 0.988530 0.043300 -0.144683
vn 0.846112 0.037594 -0.531678
vn 0.891886 0.120986 -0.435777
vn 0.974087 0.204567 -0.096474
vn -0.232807 0.045748 -0.971446
vn -0.502450 0.044902 -0.863440
vn -0.617442 0.066911 -0.783766
vn -0.290294 -0.041513 -0.956037
vn -0.993838 0.066554 -0.088634
vn -0.955254 0.280526 -0.093786
vn -0.912251 0.226926 -0.341031
vn -0.899428 0.053901 -0.433733
vn -0.994381 0.056165 0.089736
vn -0.982594 0.183576 0.028436
vn -0.968750 0.247653 0.013851
vn -0.996297 0.070657 0.048993
vn -0.408165 -0.031245 0.912373
vn 0.191797 -0.023976 0.981142
vn 0.313694 -0.002059 0.949522
vn -0.112423 -0.084234 0.990084
vn 0.726616 -0.627640 0.279459
vn 0.352900 -0.921653 0.161301
vn 0.868726 -0.301311 0.393098
vn 0.833892 -0.042747 0.550270
vn 0.984994 0.104310 0.137501
vn 0.878340 0.178167 0.443594
vn 0.877038 0.348057 0.331151
vn 0.861344 0.251932 0.441154
vn -0.907962 0.418935 -0.009939
vn -0.962801 0.270213 0.000000
vn -0.804158 0.429727 0.410689
vn -0.922377 0.111660 0.369801
vn -0.904359 0.025629 0.426003
vn -0.906742 -0.005403 0.421652
vn -0.883919 -0.364845 0.292531
vn -0.846956 -0.443219 0.293635
vn -0.755429 -0.651634 0.068563
vn 0.143490 -0.980443 0.134695
vn 0.805188 -0.177298 -0.565895
vn 0.701612 -0.302572 -0.645129
vn 0.692703 0.074450 -0.717370
vn 0.630176 0.039297 -0.775458
vn 0.740987 0.051464 -0.669544
vn 0.805205 0.279392 -0.523054
vn 0.363731 0.189848 -0.911953
vn 0.369473 0.067351 0.926797
vn 0.788962 0.250134 0.561224
vn 0.464402 0.019003 0.885421
vn 0.773553 -0.206520 0.599137
vn 0.864447 -0.269109 0.424631
vn 0.413274 -0.823835 0.387944
vn 0.535447 -0.260651 -0.803341
vn -0.762484 0.035101 0.646054
vn -0.830808 -0.318250 0.456591
vn -0.746478 0.059315 0.662761
vn -0.188955 0.166296 0.967802
vn 0.000000 0.000000 1.000000
vn 0.000000 0.000000 -1.000000
vn -0.687005 -0.102937 -0.719325
vn -0.909075 -0.150890 -0.388349

# Mesh
g Chips
usemtl DefaultMaterial
f 4/4/4 1/1/1 2/2/2
f 2/2/2 3/3/3 4/4/4
f 8/8/8 5/5/5 6/6/6
f 6/6/6 7/7/7 8/8/8
f 12/12/9 9/9/9 10/10/10
f 10/10/10 11/11/10 12/12/9
f 16/16/14 13/13/11 14/14/12
f 14/14/12 15/15/13 16/16/14
f 20/20/15 17/17/15 18/18/15
f 18/18/15 19/19/15 20/20/15
f 22/24/16 10/21/16 9/22/16
f 9/22/16 21/23/16 22/24/16
f 26/28/20 23/25/17 24/26/18
f 24/26/18 25/27/19 26/28/20
f 30/32/24 27/29/21 28/30/22
f 28/30/22 29/31/23 30/32/24
f 34/36/28 31/33/25 32/34/26
f 32/34/26 33/35/27 34/36/28
f 38/40/31 35/37/29 36/38/29
f 36/38/29 37/39/30 38/40/31
f 24/26/18 8/41/8 7/42/7
f 7/42/7 25/27/19 24/26/18
f 27/29/21 12/12/32 11/11/32
f 11/11/32 28/30/22 27/29/21
f 15/44/13 14/43/12 31/33/25
f 31/33/25 34/36/28 15/44/13
f 35/37/29 4/4/4 3/3/3
f 3/3/3 36/38/29 35/37/29
f 42/48/36 39/45/33 40/46/34
f 40/46/34 41/47/35 42/48/36
f 46/52/40 43/49/37 44/50/38
f 44/50/38 45/51/39 46/52/40
f 50/56/44 47/53/41 48/54/42
f 48/54/42 49/55/43 50/56/44
f 54/60/48 51/57/45 52/58/46
f 52/58/46 53/59/47 54/60/48
f 56/62/49 42/48/36 41/47/35
f 41/47/35 55/61/49 56/62/49
f 19/64/51 46/52/40 45/51/39
f 45/51/39 20/63/50 19/64/51
f 49/55/43 48/54/42 57/65/52
f 57/65/52 58/66/52 49/55/43
f 60/68/54 54/60/48 53/59/47
f 53/59/47 59/67/53 60/68/54
f 64/72/58 61/69/55 62/70/56
f 62/70/56 63/71/57 64/72/58
f 61/76/61 65/73/59 66/74/60
f 66/74/60 62/75/56 61/76/61
f 65/73/59 67/77/62 68/78/63
f 68/78/63 66/74/60 65/73/59
f 72/82/67 69/79/64 70/80/65
f 70/80/65 71/81/66 72/82/67
f 69/79/64 73/83/49 74/84/49
f 74/84/49 70/80/65 69/79/64
f 78/88/15 75/85/15 76/86/15
f 76/86/15 77/87/15 78/88/15
f 82/92/71 79/89/68 80/90/69
f 80/90/69 81/91/70 82/92/71
f 79/89/68 83/93/72 84/94/73
f 84/94/73 80/90/69 79/89/68
f 88/98/77 85/95/74 86/96/75
f 86/96/75 87/97/76 88/98/77
f 87/97/76 89/99/78 90/100/79
f 90/100/79 88/98/77 87/97/76
f 89/104/78 91/101/80 92/102/81
f 92/102/81 90/103/79 89/104/78
f 96/108/16 93/105/16 94/106/16
f 94/106/16 95/107/16 96/108/16
f 100/112/85 97/109/82 98/110/83
f 98/110/83 99/111/84 100/112/85
f 104/116/89 101/113/86 102/114/87
f 102/114/87 103/115/88 104/116/89
f 108/120/93 105/117/90 106/118/91
f 106/118/91 107/119/92 108/120/93
f 112/124/97 109/121/94 110/122/95
f 110/122/95 111/123/96 112/124/97
f 116/128/101 113/125/98 114/126/99
f 114/126/99 115/127/100 116/128/101
f 120/132/105 117/129/102 118/130/103
f 118/130/103 119/131/104 120/132/105
f 97/109/82 68/78/63 67/77/62
f 67/77/62 98/110/83 97/109/82
f 101/113/86 23/25/17 26/28/20
f 26/28/20 102/114/87 101/113/86
f 105/117/90 30/32/24 29/31/23
f 29/31/23 106/118/91 105/117/90
f 33/35/27 32/34/26 109/121/94
f 109/121/94 112/124/97 33/35/27
f 86/96/75 85/95/74 113/125/98
f 113/125/98 116/128/101 86/96/75
f 117/129/102 38/40/31 37/39/30
f 37/39/30 118/130/103 117/129/102
f 71/81/66 100/112/85 99/111/84
f 99/111/84 72/82/67 71/81/66
f 39/45/33 104/116/89 103/115/88
f 103/115/88 40/46/34 39/45/33
f 43/49/37 108/120/93 107/119/92
f 107/119/92 44/50/38 43/49/37
f 111/123/96 110/122/95 47/53/41
f 47/53/41 50/56/44 111/123/96
f 115/127/100 114/126/99 84/94/73
f 84/94/73 83/93/72 115/127/100
f 51/57/45 120/132/105 119/131/104
f 119/131/104 52/58/46 51/57/45
f 5/5/5 8/8/8 61/69/55
f 61/69/55 64/72/58 5/5/5
f 8/41/8 24/26/18 65/73/59
f 65/73/59 61/76/61 8/41/8
f 24/26/18 23/25/17 67/77/62
f 67/77/62 65/73/59 24/26/18
f 23/25/17 101/113/86 98/110/83
f 98/110/83 67/77/62 23/25/17
f 101/113/86 104/116/89 99/111/84
f 99/111/84 98/110/83 101/113/86
f 104/116/89 39/45/33 72/82/67
f 72/82/67 99/111/84 104/116/89
f 39/45/33 42/48/36 69/79/64
f 69/79/64 72/82/67 39/45/33
f 42/48/36 56/62/49 73/83/49
f 73/83/49 69/79/64 42/48/36
f 75/85/15 18/18/15 17/17/15
f 17/17/15 76/86/15 75/85/15
f 57/65/52 48/54/42 79/89/68
f 79/89/68 82/92/71 57/65/52
f 48/54/42 47/53/41 83/93/72
f 83/93/72 79/89/68 48/54/42
f 47/53/41 110/122/95 115/127/100
f 115/127/100 83/93/72 47/53/41
f 110/122/95 109/121/94 116/128/101
f 116/128/101 115/127/100 110/122/95
f 109/121/94 32/34/26 86/96/75
f 86/96/75 116/128/101 109/121/94
f 32/34/26 31/33/25 87/97/76
f 87/97/76 86/96/75 32/34/26
f 31/33/25 14/43/12 89/99/78
f 89/99/78 87/97/76 31/33/25
f 14/14/12 13/13/11 91/101/80
f 91/101/80 89/104/78 14/14/12
f 93/105/16 22/24/16 21/23/16
f 21/23/16 94/106/16 93/105/16
f 63/135/57 62/75/56 121/133/106
f 121/133/106 122/134/107 63/135/57
f 62/75/56 66/74/60 123/136/108
f 123/136/108 121/133/106 62/75/56
f 66/74/60 68/78/63 124/137/109
f 124/137/109 123/136/108 66/74/60
f 68/78/63 97/109/82 125/138/110
f 125/138/110 124/137/109 68/78/63
f 97/109/82 100/112/85 126/139/111
f 126/139/111 125/138/110 97/109/82
f 100/112/85 71/81/66 127/140/112
f 127/140/112 126/139/111 100/112/85
f 71/81/66 70/80/65 128/141/113
f 128/141/113 127/140/112 71/81/66
f 70/80/65 74/84/49 129/142/49
f 129/142/49 128/141/113 70/80/65
f 59/144/15 78/88/15 77/87/15
f 77/87/15 60/143/15 59/144/15
f 81/91/70 80/90/69 130/145/114
f 130/145/114 131/146/115 81/91/70
f 80/90/69 84/94/73 132/147/116
f 132/147/116 130/145/114 80/90/69
f 84/94/73 114/126/99 133/148/117
f 133/148/117 132/147/116 84/94/73
f 114/126/99 113/125/98 134/149/118
f 134/149/118 133/148/117 114/126/99
f 113/125/98 85/95/74 135/150/119
f 135/150/119 134/149/118 113/125/98
f 85/95/74 88/98/77 136/151/120
f 136/151/120 135/150/119 85/95/74
f 88/98/77 90/100/79 137/152/121
f 137/152/121 136/151/120 88/98/77
f 90/100/79 92/153/81 138/154/122
f 138/154/122 137/152/121 90/100/79
f 1/156/16 96/108/16 95/107/16
f 95/107/16 2/155/123 1/156/16
f 12/158/125 27/157/124 25/27/19
f 25/27/19 7/42/7 12/158/125
f 27/157/124 30/159/126 26/28/20
f 26/28/20 25/27/19 27/157/124
f 30/159/126 105/160/127 102/114/87
f 102/114/87 26/28/20 30/159/126
f 105/117/127 108/120/128 103/161/88
f 103/161/88 102/162/87 105/117/127
f 108/120/128 43/49/129 40/163/34
f 40/163/34 103/161/88 108/120/128
f 43/165/129 46/164/40 41/47/35
f 41/47/35 40/46/34 43/165/129
f 46/52/40 19/64/51 55/166/130
f 55/166/130 41/167/35 46/52/40
f 19/19/15 18/18/15 56/168/15
f 56/168/15 55/169/15 19/19/15
f 18/18/15 75/85/15 73/170/15
f 73/170/15 56/168/15 18/18/15
f 75/85/15 78/88/15 74/171/15
f 74/171/15 73/170/15 75/85/15
f 78/88/15 59/144/15 129/172/15
f 129/172/15 74/171/15 78/88/15
f 59/67/53 53/59/47 128/173/113
f 128/173/113 129/174/131 59/67/53
f 53/59/47 52/58/132 127/175/112
f 127/175/112 128/173/113 53/59/47
f 52/177/132 119/176/104 126/139/111
f 126/139/111 127/140/112 52/177/132
f 119/176/104 118/178/103 125/138/133
f 125/138/133 126/139/111 119/176/104
f 118/130/103 37/39/30 124/179/109
f 124/179/109 125/180/133 118/130/103
f 37/39/30 36/38/134 123/181/108
f 123/181/108 124/179/109 37/39/30
f 36/183/134 3/182/135 121/133/106
f 121/133/106 123/136/108 36/183/134
f 3/182/136 2/134/123 122/134/107
f 122/134/107 121/133/106 3/182/136
f 2/155/123 95/107/16 63/71/57
f 63/71/57 122/184/107 2/155/123
f 95/107/16 94/106/16 64/72/58
f 64/72/58 63/71/57 95/107/16
f 94/106/16 21/23/16 5/5/5
f 5/5/5 64/72/58 94/106/16
f 21/23/16 9/22/16 6/6/6
f 6/6/6 5/5/5 21/23/16
f 12/12/125 7/185/7 6/186/137
f 12/12/125 6/186/137 9/9/137
f 11/187/10 10/21/10 16/16/14
f 16/16/14 15/15/13 11/187/10
f 10/21/16 22/24/16 13/13/11
f 13/13/11 16/16/14 10/21/16
f 22/24/16 93/105/16 91/101/80
f 91/101/80 13/13/11 22/24/16
f 93/105/16 96/108/16 92/102/81
f 92/102/81 91/101/80 93/105/16
f 96/108/16 1/156/16 138/188/16
f 138/188/16 92/102/81 96/108/16
f 1/192/1 4/189/4 137/190/121
f 137/190/121 138/191/138 1/192/1
f 4/194/4 35/193/139 136/151/120
f 136/151/120 137/152/121 4/194/4
f 35/193/139 38/195/31 135/150/119
f 135/150/119 136/151/120 35/193/139
f 38/40/31 117/129/102 134/196/118
f 134/196/118 135/197/119 38/40/31
f 117/129/102 120/132/140 133/198/117
f 133/198/117 134/196/118 117/129/102
f 120/200/140 51/199/45 132/147/116
f 132/147/116 133/148/117 120/200/140
f 51/199/45 54/145/48 130/145/141
f 130/145/141 132/147/116 51/199/45
f 54/60/48 60/68/54 131/201/142
f 131/201/142 130/202/141 54/60/48
f 60/143/15 77/87/15 81/203/15
f 81/203/15 131/204/15 60/143/15
f 77/87/15 76/86/15 82/205/15
f 82/205/15 81/203/15 77/87/15
f 76/86/15 17/17/15 57/206/15
f 57/206/15 82/205/15 76/86/15
f 17/17/15 20/20/15 58/207/15
f 58/207/15 57/206/15 17/17/15
f 20/63/50 45/51/39 49/208/143
f 49/208/143 58/209/143 20/63/50
f 45/51/39 44/50/38 50/210/44
f 50/210/44 49/208/144 45/51/39
f 44/212/38 107/211/92 111/123/96
f 111/123/96 50/56/44 44/212/38
f 107/211/92 106/213/91 112/124/97
f 112/124/97 111/123/96 107/211/92
f 106/118/91 29/31/23 33/214/27
f 33/214/27 112/215/97 106/118/91
f 29/217/23 28/216/22 34/36/28
f 34/36/28 33/35/27 29/217/23
f 28/216/22 11/218/145 15/44/13
f 15/44/13 34/36/28 28/216/22
